<svg width="14" height="8" viewBox="0 0 14 8" fill="none" xmlns="http://www.w3.org/2000/svg">
<g clip-path="url(#clip0_13780_2431)">
<path d="M6.65271 1.91846C3.69407 1.91846 1.29822 4.30164 1.29822 7.23806C1.29822 10.1745 3.69407 12.5577 6.65271 12.5577C9.61671 12.5577 12.0179 10.1745 12.0179 7.23806C12.0179 4.30164 9.61671 1.91846 6.65271 1.91846ZM6.65807 11.4937C4.28902 11.4937 2.37019 9.58932 2.37019 7.23806C2.37019 4.88679 4.28902 2.98238 6.65807 2.98238C9.02713 2.98238 10.946 4.88679 10.946 7.23806C10.946 9.58932 9.02713 11.4937 6.65807 11.4937Z" fill="#231D2C"/>
<path d="M6.92605 4.57812H6.12207V7.76989L8.93599 9.44556L9.33798 8.79125L6.92605 7.37092V4.57812Z" fill="#231D2C"/>
</g>
<defs>
<clipPath id="clip0_13780_2431">
<rect width="12.8636" height="12.767" fill="white" transform="translate(0.226196 0.854492)"/>
</clipPath>
</defs>
</svg>
