<svg width="14" height="8" viewBox="0 0 14 8" fill="none" xmlns="http://www.w3.org/2000/svg">
<g clip-path="url(#clip0_13780_2545)">
<path d="M6.65283 1.91846C3.69419 1.91846 1.29834 4.30164 1.29834 7.23806C1.29834 10.1745 3.69419 12.5577 6.65283 12.5577C9.61683 12.5577 12.018 10.1745 12.018 7.23806C12.018 4.30164 9.61683 1.91846 6.65283 1.91846ZM6.65819 11.4937C4.28914 11.4937 2.37031 9.58932 2.37031 7.23806C2.37031 4.88679 4.28914 2.98238 6.65819 2.98238C9.02725 2.98238 10.9461 4.88679 10.9461 7.23806C10.9461 9.58932 9.02725 11.4937 6.65819 11.4937Z" fill="#231D2C"/>
<path d="M6.92605 4.57812H6.12207V7.76989L8.93599 9.44556L9.33798 8.79125L6.92605 7.37092V4.57812Z" fill="#231D2C"/>
</g>
<defs>
<clipPath id="clip0_13780_2545">
<rect width="12.8636" height="12.767" fill="white" transform="translate(0.226318 0.854492)"/>
</clipPath>
</defs>
</svg>
