<svg width="17" height="11" viewBox="0 0 17 11" fill="none" xmlns="http://www.w3.org/2000/svg">
<path d="M0.0571289 10.988H3.35215C6.31184 10.988 8.22178 8.9323 8.22178 5.94345V5.81224C8.22178 2.82339 6.31184 0.782227 3.35215 0.782227H0.0571289V10.988ZM3.33757 2.69217C4.94134 2.69217 6.03482 3.82939 6.03482 5.85597V5.92887C6.03482 7.95546 4.94134 9.0781 3.33757 9.0781H2.17119V2.69217H3.33757Z" fill="#CEA8BC"/>
<path d="M14.2578 0.782227L12.4937 4.09183L10.7587 0.782227H8.35302L11.2398 5.79766L8.2218 10.988H10.5691L12.4499 7.48891L14.3161 10.988H16.7218L13.6892 5.7685L16.6052 0.782227H14.2578Z" fill="#CEA8BC"/>
</svg>
