<svg width="52" height="13" viewBox="0 0 52 13" fill="none" xmlns="http://www.w3.org/2000/svg">
<path d="M51.4955 6.53816C51.4955 9.67032 49.0231 12.1875 46 12.1875C42.9769 12.1875 40.5045 9.67032 40.5045 6.53816C40.5045 3.40599 42.9769 0.888818 46 0.888818C49.0231 0.888818 51.4955 3.40599 51.4955 6.53816Z" fill="#00D641" stroke="#12B829" stroke-width="1.00908"/>
<path d="M31.4955 6.53816C31.4955 9.67032 29.0231 12.1875 26 12.1875C22.9769 12.1875 20.5045 9.67032 20.5045 6.53816C20.5045 3.40599 22.9769 0.888818 26 0.888818C29.0231 0.888818 31.4955 3.40599 31.4955 6.53816Z" fill="#FFBD00" stroke="#E79F13" stroke-width="1.00908"/>
<path d="M11.4955 6.53816C11.4955 9.67032 9.02309 12.1875 6 12.1875C2.97691 12.1875 0.50454 9.67032 0.50454 6.53816C0.50454 3.40599 2.97691 0.888818 6 0.888818C9.02309 0.888818 11.4955 3.40599 11.4955 6.53816Z" fill="#FF3B47" stroke="#EF1320" stroke-width="1.00908"/>
</svg>
